<svg width="48" height="48" viewBox="0 0 48 48" xmlns="http://www.w3.org/2000/svg">
  <defs>
    <linearGradient id="grad48" x1="0%" y1="0%" x2="100%" y2="100%">
      <stop offset="0%" style="stop-color:#667eea;stop-opacity:1" />
      <stop offset="100%" style="stop-color:#764ba2;stop-opacity:1" />
    </linearGradient>
  </defs>
  <rect width="48" height="48" rx="8" fill="url(#grad48)"/>
  <path d="M24 9c3.3 0 6.3 1.2 8.4 3.6 2.1 2.1 3.6 5.1 3.6 8.4 0 1.8-.3 3.3-1.2 4.8l3.9 3.9c.6.6.6 1.5 0 2.1-.6.6-1.5.6-2.1 0l-3.9-3.9c-1.5.9-3 1.2-4.8 1.2-3.3 0-6.3-1.2-8.4-3.6C16.2 27.3 15 24.3 15 21c0-3.3 1.2-6.3 3.6-8.4C20.7 10.2 23.7 9 24 9z" fill="white"/>
  <circle cx="24" cy="21" r="4.5" fill="url(#grad48)"/>
</svg>