<svg width="16" height="16" viewBox="0 0 16 16" xmlns="http://www.w3.org/2000/svg">
  <defs>
    <linearGradient id="grad" x1="0%" y1="0%" x2="100%" y2="100%">
      <stop offset="0%" style="stop-color:#667eea;stop-opacity:1" />
      <stop offset="100%" style="stop-color:#764ba2;stop-opacity:1" />
    </linearGradient>
  </defs>
  <rect width="16" height="16" rx="3" fill="url(#grad)"/>
  <path d="M8 3c1.1 0 2.1.4 2.8 1.2.7.7 1.2 1.7 1.2 2.8 0 .6-.1 1.1-.4 1.6l1.3 1.3c.2.2.2.5 0 .7-.2.2-.5.2-.7 0l-1.3-1.3c-.5.3-1 .4-1.6.4-1.1 0-2.1-.4-2.8-1.2C5.4 8.1 5 7.1 5 6c0-1.1.4-2.1 1.2-2.8C7 3.4 7.9 3 8 3z" fill="white"/>
  <circle cx="8" cy="6" r="1.5" fill="url(#grad)"/>
</svg>